<svg xmlns="http://www.w3.org/2000/svg" xmlns:xlink="http://www.w3.org/1999/xlink" viewBox="0 0 291.69 291.69"><defs><style>.cls-1{isolation:isolate;}.cls-2{fill:url(#linear-gradient);}.cls-3{fill:url(#linear-gradient-2);}.cls-4{mix-blend-mode:multiply;fill:url(#linear-gradient-3);}.cls-5{fill:url(#linear-gradient-4);}.cls-6{mix-blend-mode:overlay;fill:url(#linear-gradient-5);}.cls-7{fill:url(#linear-gradient-6);}.cls-10,.cls-8,.cls-9{mix-blend-mode:screen;}.cls-8{fill:url(#linear-gradient-7);}.cls-9{fill:url(#linear-gradient-8);}.cls-10{fill:url(#linear-gradient-9);}</style><linearGradient id="linear-gradient" x1="145.84" x2="145.84" y2="291.69" gradientUnits="userSpaceOnUse"><stop offset="0" stop-color="#fff"/><stop offset="1" stop-color="#fff7ea"/></linearGradient><linearGradient id="linear-gradient-2" x1="57.49" y1="190.12" x2="234.2" y2="190.12" gradientUnits="userSpaceOnUse"><stop offset="0" stop-color="#0e9547"/><stop offset="1" stop-color="#34b44a"/></linearGradient><linearGradient id="linear-gradient-3" x1="152.91" y1="131.35" x2="204.67" y2="131.35" gradientUnits="userSpaceOnUse"><stop offset="0" stop-color="#77c045"/><stop offset="1" stop-color="#34b44a"/></linearGradient><linearGradient id="linear-gradient-4" x1="87.27" y1="148.61" x2="121.31" y2="148.61" gradientUnits="userSpaceOnUse"><stop offset="0" stop-color="#33b34a"/><stop offset="1" stop-color="#246c37"/></linearGradient><linearGradient id="linear-gradient-5" x1="131.21" y1="131.55" x2="196.93" y2="131.55" xlink:href="#linear-gradient-3"/><linearGradient id="linear-gradient-6" x1="164.13" y1="38.57" x2="135.81" y2="124.41" xlink:href="#linear-gradient-4"/><linearGradient id="linear-gradient-7" x1="151.23" y1="-467.61" x2="100.13" y2="-361.9" gradientTransform="translate(113.62 629.14) rotate(-9.98)" xlink:href="#linear-gradient-4"/><linearGradient id="linear-gradient-8" x1="159.61" y1="-577.86" x2="118.82" y2="-493.47" gradientTransform="translate(113.62 629.14) rotate(-9.98)" xlink:href="#linear-gradient-4"/><linearGradient id="linear-gradient-9" x1="107.11" y1="-529.8" x2="52.2" y2="-416.2" gradientTransform="translate(113.62 629.14) rotate(-9.98)" xlink:href="#linear-gradient-4"/></defs><g class="cls-1"><g id="Layer_2"><g id="Layer_1-2"><rect class="cls-2" width="291.69" height="291.69" rx="48.19"/><path class="cls-3" d="M202,226.92c-68.3,68.83-143.67,1.88-144.54,1.1,24.89,11.78,116.85,37.41,139.43-38.44,8.65-29,1.05-43-11.63-49.15a39.43,39.43,0,0,0-8.15-2.82c-7.84-1.82-16.54-1.74-24.23-1a125.89,125.89,0,0,0-21.7,4.2q1.62-1.65,3.37-3.14a64.11,64.11,0,0,1,30.68-14.27,73.4,73.4,0,0,1,31.67,1.2,65.64,65.64,0,0,1,7.74,2.58C236.12,139.92,252.29,176.26,202,226.92Z"/><path class="cls-4" d="M204.67,127.22a73.81,73.81,0,0,1-19.38,13.21c-9.51-4.61-21.88-4.84-32.38-3.78A136.16,136.16,0,0,0,179,122.26,70.47,70.47,0,0,1,204.67,127.22Z"/><path class="cls-5" d="M119,75.49s13.76,78.24-25.6,146.24c0,0-10.11-21.44-4.32-62.39S113.79,103.66,119,75.49Z"/><path class="cls-6" d="M196.93,124.64a72.66,72.66,0,0,1-19.79,13c-7.84-1.82-16.54-1.74-24.23-1a125.89,125.89,0,0,0-21.7,4.2q1.62-1.65,3.37-3.14a163,163,0,0,0,30.68-14.27,73.4,73.4,0,0,1,31.67,1.2Z"/><path class="cls-7" d="M131.21,140.85s60.54,23.22,94.82-52.2c33.23-73.09-97.05-68-152.16-15.6,0,0,100.12-33.31,121.66-9.13C212.11,82.55,196.74,120.14,131.21,140.85Z"/><path class="cls-8" d="M205.61,132.6s24.15,34.18,4.78,68.54c-20.33,36.05-58.58,56.16-117.12,42.8,0,0,66,34.23,117.37-29.31S205.61,132.6,205.61,132.6Z"/><path class="cls-9" d="M93.23,61.43s49.64-29,94.16-23.32,64.93,40-5.71,94.79c0,0,54.38-57.82,27.08-76.59S136,48.84,93.23,61.43Z"/><path class="cls-10" d="M120.67,86.92s-2,89.39-24.74,124.13c0,0,0-28.53,4.85-48.07S120.19,96.53,120.67,86.92Z"/></g></g></g></svg>