<?xml version="1.0" standalone="no"?>
<!DOCTYPE svg PUBLIC "-//W3C//DTD SVG 20010904//EN"
 "http://www.w3.org/TR/2001/REC-SVG-20010904/DTD/svg10.dtd">
<svg version="1.0" xmlns="http://www.w3.org/2000/svg"
 width="40.000000pt" height="41.000000pt" viewBox="0 0 40.000000 41.000000"
 preserveAspectRatio="xMidYMid meet">

<g transform="translate(0.000000,41.000000) scale(0.100000,-0.100000)"
fill="#000000" stroke="none">
<path d="M136 395 c-40 -14 -106 -70 -106 -91 0 -6 11 -19 25 -28 25 -16 26
-16 51 13 35 42 89 57 135 38 33 -13 37 -13 63 8 l29 23 -26 17 c-26 17 -87
35 -117 34 -8 0 -32 -6 -54 -14z"/>
<path d="M200 210 c0 -30 0 -30 55 -30 60 0 71 -15 38 -52 -17 -19 -16 -20 7
-39 14 -10 29 -17 34 -16 18 6 47 76 49 119 l2 43 -92 3 -93 3 0 -31z"/>
</g>
</svg>
