<?xml version="1.0" standalone="no"?>
<!DOCTYPE svg PUBLIC "-//W3C//DTD SVG 20010904//EN"
 "http://www.w3.org/TR/2001/REC-SVG-20010904/DTD/svg10.dtd">
<svg version="1.0" xmlns="http://www.w3.org/2000/svg"
 width="256.000000pt" height="256.000000pt" viewBox="0 0 256.000000 256.000000"
 preserveAspectRatio="xMidYMid meet">

<g transform="translate(0.000000,256.000000) scale(0.100000,-0.100000)"
fill="#000000" stroke="none">
<path d="M251 1764 c0 -11 3 -14 6 -6 3 7 2 16 -1 19 -3 4 -6 -2 -5 -13z"/>
<path d="M903 1761 c-62 -16 -108 -55 -139 -118 -19 -39 -26 -40 -67 -10 -26
18 -45 22 -107 22 -67 0 -79 -3 -117 -30 -90 -63 -117 -177 -66 -283 15 -31
28 -63 29 -71 8 -50 179 -162 322 -210 53 -18 70 -20 102 -11 22 6 44 19 50
30 5 10 16 24 23 32 25 25 124 163 151 209 80 139 87 295 18 372 -50 56 -133
84 -199 68z"/>
<path d="M1581 1763 c-29 -6 -89 -43 -113 -69 -70 -80 -63 -223 18 -366 36
-63 113 -175 137 -200 7 -7 21 -25 31 -40 11 -17 33 -32 57 -38 46 -13 116 8
241 71 77 39 178 120 178 143 0 6 14 38 30 70 56 110 31 224 -63 291 -32 23
-54 30 -103 33 -61 4 -80 -1 -143 -39 -17 -10 -25 -11 -28 -2 -12 34 -68 104
-97 121 -34 20 -105 33 -145 25z"/>
<path d="M216 1688 c-10 -29 -21 -62 -26 -73 -16 -41 -40 -153 -51 -247 -21
-167 19 -399 96 -566 14 -29 25 -55 25 -57 0 -3 18 -34 40 -70 165 -270 429
-458 745 -531 102 -24 316 -29 425 -10 104 18 247 63 325 102 326 164 568 486
628 839 15 89 15 302 0 380 -20 102 -35 160 -44 170 -5 5 -9 16 -9 25 -1 8
-10 33 -21 55 -22 44 -21 37 12 -75 20 -64 23 -99 23 -240 1 -175 -9 -250 -51
-380 -31 -96 -100 -234 -161 -318 -54 -76 -243 -268 -272 -277 -11 -4 -20 -11
-20 -16 0 -5 -5 -9 -12 -9 -6 0 -19 -6 -27 -14 -31 -28 -178 -95 -251 -116
-91 -25 -196 -42 -270 -43 -229 -4 -481 71 -628 188 -217 173 -330 315 -420
525 -96 222 -114 560 -42 758 11 28 16 52 12 52 -5 0 -16 -24 -26 -52z"/>
<path d="M698 793 c-29 -7 -29 -32 1 -96 93 -205 342 -359 581 -360 103 0 186
20 300 75 67 32 101 57 165 122 110 110 176 242 130 260 -8 3 -67 -8 -131 -24
-275 -69 -693 -66 -964 8 -36 10 -72 17 -82 15z"/>
</g>
</svg>
